PLOT

A group of former elementary school classmates who decide to visit their ailing teacher at her home in the South Korean
countryside watch their plans for an idyllic reunion crumble in this slasher flick from first-time feature director
Dae-wung Lim. It's not that they've changed so much since their last meeting 16 years ago. It's just that they've been
so good at hiding their pent-up frustrations about the past à until now.
 
http://www.imdb.com/title/tt0870958/

Encoded By .......: BP-LKRG
Runtime ..........: 1h 33mn
File Size ........: 948 MB
Resolution .......: 704 x 396
IMDb URL .........: 
Genre ............: Horror,Mystery,Thriller
Language .........: Korean
Subtitles ........: English
Video
ID : 0
Format : MPEG-4 Visual
Format profile : Advanced Simple@L5
Format settings, BVOP : Yes
Format settings, QPel : No
Format settings, GMC : No warppoints
Format settings, Matrix : Default (H.263)
Codec ID : XVID
Codec ID/Hint : XviD
Duration : 1h 33mn
Bit rate : 969 Kbps
Width : 704 pixels
Height : 396 pixels
Display aspect ratio : 16:9
Frame rate : 29.970 fps
Color space : YUV
Chroma subsampling : 4:2:0
Bit depth : 8 bits
Scan type : Progressive
Compression mode : Lossy
Bits/(Pixel*Frame) : 0.116
Stream size : 646 MiB (68%)
Writing library : XviD 1.2.1 (UTC 2008-12-04)
Audio
ID : 1
Format : AC-3
Format/Info : Audio Coding 3
Mode extension : CM (complete main)
Codec ID : 2000
Duration : 1h 33mn
Bit rate mode : Constant
Bit rate : 448 Kbps
Channel(s) : 6 channels
Channel positions : Front: L C R, Side: L R, LFE
Sampling rate : 48.0 KHz
Bit depth : 16 bits
Compression mode : Lossy
Video delay : 33ms
Stream size : 299 MiB (31%)
Alignment : Split accross interleaves
Interleave, duration : 500 ms (14.98 video frames)
Interleave, preload duration : 500 ms